<svg fill="#87cefa" version="1.1" id="like" xmlns="http://www.w3.org/2000/svg" xmlns:xlink="http://www.w3.org/1999/xlink"   x="0px" y="0px" width="512px" height="512px" viewBox="0 0 512 512" style="enable-background:new 0 0 512 512;" xml:space="preserve">
	<g>
		<g>
			<path d="M310.75,144c-21.875,0-41.375,10.078-54.75,25.766C242.5,154.078,223,144,201.125,144C160.75,144,128,177.422,128,218.625
				C128,312,256,368,256,368s128-56,128-149.375C384,177.422,351.25,144,310.75,144z"/>
			<path d="M256,0C114.609,0,0,114.609,0,256c0,141.391,114.609,256,256,256c141.391,0,256-114.609,256-256
				C512,114.609,397.391,0,256,0z M256,472c-119.297,0-216-96.703-216-216S136.703,40,256,40s216,96.703,216,216S375.297,472,256,472
				z"/>
		</g>
	</g>
	<g>
	</g>
	<g>
	</g>
	<g>
	</g>
	<g>
	</g>
	<g>
	</g>
	<g>
	</g>
	<g>
	</g>
	<g>
	</g>
	<g>
	</g>
	<g>
	</g>
	<g>
	</g>
	<g>
	</g>
	<g>
	</g>
	<g>
	</g>
	<g>
	</g>
</svg>

<svg fill="#87cefa" version="1.1" id="lapa" xmlns="http://www.w3.org/2000/svg" xmlns:xlink="http://www.w3.org/1999/xlink" x="0px" y="0px"
	 width="513px" height="513px" viewBox="0 0 513 513" style="enable-background:new 0 0 513 513;" xml:space="preserve">
	<g>
		<g>
			<path d="M256.5,0C114.833,0,0,114.833,0,256.5S114.833,513,256.5,513S513,398.167,513,256.5S398.167,0,256.5,0z M256.5,472.922
				c-119.53,0-216.422-96.893-216.422-216.422c0-119.53,96.892-216.422,216.422-216.422c119.53,0,216.422,96.892,216.422,216.422
				C472.922,376.029,376.03,472.922,256.5,472.922z"/>
			<path d="M133.98,237.119c-9.394,8.673-6.982,27.396,5.385,41.863c12.368,14.449,29.996,19.131,39.374,10.427
				c9.378-8.644,6.967-27.397-5.401-41.832C160.97,233.142,143.342,228.445,133.98,237.119z"/>
			<path d="M339.333,244.257c-11.006,15.625-11.694,34.521-1.55,42.224c10.129,7.67,27.257,1.313,38.247-14.325
				c10.989-15.593,11.679-34.473,1.55-42.191C367.45,222.277,350.308,228.68,339.333,244.257z"/>
			<path d="M226.629,240.625c16.517-3.977,25.111-28.65,19.179-55.107c-5.887-26.458-24.078-44.681-40.595-40.705
				c-16.501,4.008-25.08,28.681-19.194,55.139C191.952,226.379,210.128,244.602,226.629,240.625z"/>
			<path d="M309.557,144.813c-16.5-3.977-34.677,14.247-40.595,40.705s2.661,51.131,19.192,55.107
				c16.486,3.976,34.678-14.247,40.596-40.673C334.684,173.495,326.058,148.821,309.557,144.813z"/>
			<path d="M256.5,263.014c-39.374,0-68.932,62.699-68.932,83.443c0,51.005,29.558-1.613,68.932-1.613
				c39.391,0,68.932,52.618,68.932,1.613C325.432,325.713,295.891,263.014,256.5,263.014z"/>
		</g>
	</g>
	<g>
	</g>
	<g>
	</g>
	<g>
	</g>
	<g>
	</g>
	<g>
	</g>
	<g>
	</g>
	<g>
	</g>
	<g>
	</g>
	<g>
	</g>
	<g>
	</g>
	<g>
	</g>
	<g>
	</g>
	<g>
	</g>
	<g>
	</g>
	<g>
	</g>
</svg>

<svg fill="#87cefa" version="1.1" id="done" xmlns="http://www.w3.org/2000/svg" xmlns:xlink="http://www.w3.org/1999/xlink" x="0px" y="0px"
	 width="612px" height="612px" viewBox="0 0 612 612" style="enable-background:new 0 0 612 612;" xml:space="preserve">
	<g>
		<g id="Down">
			<g>
				<path d="M306,0C137.012,0,0,137.012,0,306s137.012,306,306,306s306-137.012,306-306S474.988,0,306,0z M306,554.625
					C168.912,554.625,57.375,443.088,57.375,306S168.912,57.375,306,57.375S554.625,168.912,554.625,306S443.088,554.625,306,554.625
					z M411.188,229.5c-8.377,0-15.836,3.634-21.076,9.352l-0.076-0.057L306,330.48l-84.054-91.686l-0.077,0.057
					c-5.221-5.718-12.68-9.352-21.057-9.352c-15.835,0-28.688,12.852-28.688,28.688c0,7.478,2.926,14.21,7.612,19.335l-0.077,0.057
					l105.188,114.75c5.451,5.91,13.101,9.295,21.152,9.295s15.701-3.385,21.133-9.295L432.32,277.58l-0.076-0.057
					c4.705-5.125,7.631-11.857,7.631-19.335C439.875,242.352,427.023,229.5,411.188,229.5z"/>
			</g>
		</g>
	</g>
	<g>
	</g>
	<g>
	</g>
	<g>
	</g>
	<g>
	</g>
	<g>
	</g>
	<g>
	</g>
	<g>
	</g>
	<g>
	</g>
	<g>
	</g>
	<g>
	</g>
	<g>
	</g>
	<g>
	</g>
	<g>
	</g>
	<g>
	</g>
	<g>
	</g>
</svg>
