<svg xmlns="http://www.w3.org/2000/svg" width="194" height="194" viewBox="0 0 1940 1940"><g id="l2xiPQCMprLY9Drb6Oh2Sga" fill="#87CEFA" style="transform: none;"><g><path id="pcZYkyKzw" d="M 810 1905 c -85 -13 -181 -41 -236 -69 -16 -8 -36 -17 -44 -20 -31 -12 -150 -93 -187 -127 -147 -140 -220 -245 -281 -404 -48 -123 -66 -361 -37 -495 9 -41 18 -84 20 -95 8 -36 60 -153 103 -230 49 -88 181 -230 253 -272 16 -9 29 -21 29 -25 0 -4 5 -8 11 -8 6 0 23 -8 37 -19 15 -10 44 -24 65 -32 20 -7 37 -16 37 -20 0 -6 58 -23 73 -20 4 0 7 -3 7 -8 0 -4 48 -19 107 -31 91 -19 126 -22 237 -17 179 8 307 45 461 135 142 82 327 286 367 405 6 18 14 34 17 37 14 12 51 142 65 229 20 119 20 174 0 292 -54 324 -256 590 -549 723 -33 15 -67 29 -75 31 -8 2 -28 9 -45 15 -41 16 -217 40 -290 38 -33 0 -98 -6 -145 -13 z  m 350 -30 c 278 -64 514 -246 635 -490 16 -33 32 -62 35 -65 3 -3 7 -14 8 -25 2 -11 8 -25 13 -31 5 -6 10 -24 12 -40 2 -17 6 -34 10 -40 15 -25 29 -195 22 -274 -4 -47 -8 -96 -9 -110 -1 -14 -5 -32 -8 -40 -3 -8 -13 -41 -22 -72 -17 -59 -101 -229 -133 -270 -31 -39 -188 -198 -196 -198 -4 0 -17 -8 -27 -18 -39 -36 -208 -111 -310 -138 -87 -23 -125 -27 -225 -27 -66 0 -138 5 -160 11 -123 31 -166 45 -234 79 -201 97 -340 232 -436 422 -32 64 -37 78 -69 186 -36 120 -41 303 -11 418 9 34 18 71 21 82 7 35 47 128 71 167 13 21 23 40 23 43 0 16 85 120 150 183 109 107 291 215 383 228 16 2 33 7 39 10 5 3 42 12 81 20 90 17 237 12 337 -11 z "></path><path id="ptuqC4xC0" d="M 418 1582 c -10 -2 -18 -8 -18 -14 0 -6 -3 -9 -6 -5 -8 8 -77 -62 -103 -104 -31 -50 -29 -133 5 -185 78 -121 230 -113 334 18 63 79 54 111 -63 223 -75 71 -92 79 -149 67 z  m 118 -116 c 49 -48 58 -88 24 -106 -11 -6 -26 -10 -33 -9 -6 1 -24 -1 -39 -5 -35 -10 -68 8 -68 39 0 13 5 27 10 30 6 3 7 17 4 31 -7 27 18 64 44 64 8 0 34 -20 58 -44 z  m -137 0 c 7 -8 9 -25 5 -40 -8 -33 -46 -35 -69 -3 -15 21 -14 23 6 40 26 21 43 22 58 3 z  M390.68511070699896 1342.2188265484983 C 390.68511070699896 1321.3593731702485 373.77518264816797 1304.4494451114176 352.91572926991824 1304.4494451114176 332.0562758916685 1304.4494451114176 315.14634783283753 1321.3593731702485 315.14634783283753 1342.2188265484983 315.14634783283753 1363.078279926748 332.0562758916685 1379.988207985579 352.91572926991824 1379.988207985579 373.77518264816797 1379.988207985579 390.68511070699896 1363.078279926748 390.68511070699896 1342.2188265484983 Z M388.0 1344.0  m 160 -56 c 3 -36 2 -38 -27 -38 -24 0 -32 5 -37 25 -8 31 12 57 40 53 16 -2 22 -11 24 -40 z  m -88 7 c 19 -23 -2 -65 -33 -65 -32 0 -56 42 -37 65 16 19 54 19 70 0 z "></path><path id="pUHU6oYGF" d="M 1046 1390 c -16 -5 -33 -7 -38 -4 -4 3 -8 0 -8 -6 0 -6 -4 -9 -9 -5 -5 3 -12 1 -16 -4 -3 -5 -13 -9 -23 -9 -25 1 -190 -47 -237 -68 -79 -37 -126 -79 -182 -161 -34 -49 -81 -93 -119 -109 -48 -20 -60 -40 -39 -64 10 -11 24 -20 30 -20 27 0 26 -33 -2 -64 -15 -16 -34 -36 -40 -44 -7 -7 -13 -17 -13 -22 0 -15 37 -30 74 -30 34 0 47 -12 27 -24 -17 -11 -53 -124 -46 -146 6 -20 12 -22 54 -17 25 3 53 8 63 12 12 5 18 -1 22 -27 9 -46 44 -179 68 -261 22 -72 37 -87 93 -93 42 -4 61 15 105 103 35 71 35 71 130 87 211 36 302 61 427 117 24 11 45 19 47 19 2 0 37 -20 78 -45 42 -25 84 -45 94 -45 41 0 63 13 78 45 14 29 14 38 2 79 -8 26 -15 49 -15 51 -1 3 -1 6 -2 8 0 1 -2 9 -4 17 -2 8 -9 33 -15 55 -12 42 -20 82 -22 103 -1 6 -4 12 -8 12 -3 0 -6 14 -5 32 0 29 4 33 44 45 25 7 48 18 52 25 13 20 -23 69 -73 100 -27 16 -48 34 -48 39 0 4 13 15 28 23 42 22 53 38 39 57 -17 22 -51 39 -81 39 -34 0 -40 15 -22 52 27 54 16 65 -73 70 -51 3 -89 11 -105 22 -14 9 -26 14 -26 11 0 -3 -10 0 -22 7 -13 7 -26 11 -30 10 -5 -1 -8 2 -8 6 0 4 -13 9 -30 10 -16 1 -41 7 -55 12 -31 12 -99 12 -139 0 z  m 177 -71 c 34 -11 78 -28 97 -37 19 -9 40 -17 45 -18 6 0 31 -4 57 -8 47 -7 47 -7 41 -57 -6 -47 -5 -49 20 -49 14 0 32 -3 41 -6 13 -5 13 -9 -4 -32 -11 -15 -23 -42 -26 -59 -5 -27 -3 -33 11 -33 25 0 95 -42 95 -57 0 -7 -7 -13 -15 -13 -58 0 -170 -105 -163 -152 4 -29 41 -32 46 -3 5 24 41 65 58 65 6 0 14 -17 17 -37 3 -21 20 -87 37 -148 17 -60 32 -119 33 -130 3 -34 -28 -28 -107 22 -197 123 -216 131 -216 93 0 -13 12 -28 30 -38 33 -19 36 -27 18 -39 -22 -14 -152 -63 -168 -63 -8 0 -42 -9 -75 -19 -77 -24 -215 -37 -215 -21 0 6 7 18 15 26 19 20 19 50 0 58 -19 7 -62 -60 -132 -202 -47 -98 -74 -107 -93 -31 -4 19 -22 88 -39 153 -17 65 -31 123 -31 127 0 17 29 9 59 -17 17 -14 38 -23 46 -20 27 10 16 44 -22 71 -33 22 -48 25 -120 25 -94 0 -102 9 -55 57 16 15 31 35 34 44 8 19 -30 59 -55 59 -29 0 -31 23 -4 46 34 29 34 49 2 70 -14 9 -25 21 -24 28 0 6 26 34 58 61 31 28 68 67 81 88 29 45 130 125 169 133 14 3 55 14 91 24 36 10 94 26 130 35 36 10 70 19 75 20 31 10 103 2 158 -16 z "></path><path id="p1FM8yab3n" d="M 1044 1262 c -34 -18 -56 -39 -79 -74 -19 -31 -37 -35 -55 -13 -7 8 -23 15 -36 15 -12 0 -25 4 -28 9 -6 10 -24 9 -41 0 -5 -4 -22 -9 -36 -12 -31 -8 -81 -46 -74 -57 3 -4 -1 -10 -9 -13 -7 -3 -13 -19 -12 -39 1 -42 25 -44 45 -3 27 57 67 80 120 70 37 -7 91 -49 91 -71 0 -7 -11 -33 -24 -58 -17 -31 -21 -48 -13 -53 6 -3 13 -1 15 5 2 7 13 12 25 12 12 0 45 7 72 16 28 9 59 17 70 18 29 4 24 18 -16 43 -61 39 -72 52 -57 70 7 9 12 18 10 20 -2 2 5 17 14 32 33 55 106 68 145 26 38 -40 82 -29 59 15 -15 29 -84 61 -125 58 -19 -1 -46 -8 -61 -16 z "></path><path id="p13P0VhiBc" d="M 1287 993 c -4 -3 -7 -14 -7 -23 0 -54 -92 -80 -136 -39 -31 29 -58 19 -43 -15 16 -34 72 -60 113 -52 17 4 37 7 43 8 25 3 55 47 60 87 4 32 2 41 -9 41 -8 0 -18 -3 -21 -7 z "></path><path id="plIIcX65X" d="M904.3895541975493 833.3236428736283 C 904.3895541975493 874.643563226665 870.893140466256 908.1399769579583 829.5732201132192 908.1399769579583 788.2532997601825 908.1399769579583 754.7568860288892 874.643563226665 754.7568860288892 833.3236428736283 754.7568860288892 792.0037225205915 788.2532997601825 758.5073087892982 829.5732201132192 758.5073087892982 870.893140466256 758.5073087892982 904.3895541975493 792.0037225205915 904.3895541975493 833.3236428736283 Z M780.0 890.0 "></path></g></g></svg>